<?xml version="1.0" encoding="UTF-8" standalone="no" ?>
<!DOCTYPE svg PUBLIC "-//W3C//DTD SVG 1.1//EN" "http://www.w3.org/Graphics/SVG/1.1/DTD/svg11.dtd">
<svg xmlns="http://www.w3.org/2000/svg" xmlns:xlink="http://www.w3.org/1999/xlink" version="1.1" width="500" height="500" viewBox="0 0 500 500" xml:space="preserve">
<desc>Created with Fabric.js 5.3.0</desc>
<defs>
</defs>
<g transform="matrix(1 0 0 1 235.0863422292 210.8623671468)" id="NPE5O7yX2nggOTsLYmaus"  >
<linearGradient id="SVGID_767" gradientUnits="userSpaceOnUse" gradientTransform="matrix(1 0 0 1 -78.7908393271 -166.784755499)"  x1="78.79083932714687" y1="37.95068709178807" x2="78.79083932714687" y2="236.58975168829937">
<stop offset="0%" style="stop-color:#FF9C11;stop-opacity: 1"/>
<stop offset="41.81117485283529%" style="stop-color:#FFA02F;stop-opacity: 1"/>
<stop offset="100%" style="stop-color:#FFFFFF;stop-opacity: 1"/>
</linearGradient>
<path style="stroke: rgb(255,146,17); stroke-width: 20; stroke-dasharray: none; stroke-linecap: butt; stroke-dashoffset: 0; stroke-linejoin: miter; stroke-miterlimit: 4; fill: url(#SVGID_767); fill-rule: nonzero; opacity: 1;"  transform=" translate(0, 0)" d="M 72.59247 -66.95588 C 98.09933000000001 -129.11838999999998 39.299580000000006 -166.78474999999997 -2.3016799999999904 -166.78474999999997 C -43.902939999999994 -166.78474999999997 -94.90530999999999 -128.57282999999998 -73.90844999999999 -66.95587999999998 C -63.43221999999999 -36.21254999999998 -45.41205999999998 -16.11261999999998 -4.246139999999983 27.78673000000002 C 36.91979000000002 71.68607000000003 57.24941000000002 76.01779000000002 57.24941000000002 110.68989000000002 C 57.24941000000002 145.36199000000002 41.908070000000016 169.84392000000003 -4.246139999999983 166.47512 C -50.40034999999998 163.10633 -57.538699999999984 131.225 -56.44544999999998 112.81713 C -55.35218999999998 94.40926 -36.23674999999998 72.38908 -36.23674999999998 72.38908" stroke-linecap="round" />
</g>
<g transform="matrix(1 0 0 1 235.0863422292 326.5798337338)" id="gvQplIBsCSoKPcvLVpVvi"  >
<path style="stroke: rgb(0,152,157); stroke-width: 10; stroke-dasharray: none; stroke-linecap: butt; stroke-dashoffset: 0; stroke-linejoin: miter; stroke-miterlimit: 4; fill: rgb(255,255,255); fill-opacity: 0; fill-rule: nonzero; opacity: 1;"  transform=" translate(0, 0)" d="M -25.88652 0 L 25.886529999999997 0" stroke-linecap="round" />
</g>
<g transform="matrix(1 0 0 1 235.0863422292 131.8681318681)" id="3KZUoZTPWWv1xQmPDVqZp"  >
<path style="stroke: rgb(0,152,157); stroke-width: 10; stroke-dasharray: none; stroke-linecap: butt; stroke-dashoffset: 0; stroke-linejoin: miter; stroke-miterlimit: 4; fill: rgb(255,255,255); fill-opacity: 0; fill-rule: nonzero; opacity: 1;"  transform=" translate(0, 0)" d="M -40.81633 0 L 40.81632 0" stroke-linecap="round" />
</g>
<g transform="matrix(1 0 0 1 224.754231571 271.0421483666)" id="Dk4lf9qgM9H-aarR5KVyI"  >
<path style="stroke: rgb(0,152,157); stroke-width: 0; stroke-dasharray: none; stroke-linecap: butt; stroke-dashoffset: 0; stroke-linejoin: miter; stroke-miterlimit: 4; fill: rgb(255,255,255); fill-rule: nonzero; opacity: 1;"  transform=" translate(0, 0)" d="M -33.03216 5.18153 L 0.2821700000000007 -23.68636 L 33.03216 8.688119999999998 L -11.83088 23.68638 z" stroke-linecap="round" />
</g>
<g transform="matrix(1 0 0 1 235.0863422292 131.8681318681)" id="xJgYjHDrNXzsLHbyyCNLH"  >
<path style="stroke: rgb(0,152,157); stroke-width: 10; stroke-dasharray: none; stroke-linecap: butt; stroke-dashoffset: 0; stroke-linejoin: miter; stroke-miterlimit: 4; fill: rgb(255,255,255); fill-opacity: 0; fill-rule: nonzero; opacity: 1;"  transform=" translate(0, 0)" d="M 0 -35.32182 L 0 35.32182" stroke-linecap="round" />
</g>
</svg>